# xmcd
#
# Track frame offsets:
#	187
#	43285
#	81972
#	111847
#	133857
#	161792
#	207427
#	223000
#	264895
#	295745
#
# Disc length: 4591 seconds
#
# Revision: 1
# Processed by: cddbd v1.5.1PL0 Copyright (c) Steve Scherf et al.
# Submitted via: CDex 1.50Beta5
#
DISCID=9b11ed0a
DTITLE=Mozart - Mozart  10番 グラン・パルティータ、幻想曲
DYEAR=1900
DGENRE=Classical
TTITLE0=モーツアルト/セレナード10番 第一楽章ラルゴ-アレグロ・モルト
TTITLE1=グラン・パルティータ第二楽章メヌエット
TTITLE2=グラン・パルティータ第三楽章アダージョ
TTITLE3=グラン・パルティータ第四楽章メヌエット
TTITLE4=グラン・パルティータ第五楽章ロマンス
TTITLE5=グラン・パルティータ第六楽章主題と変奏
TTITLE6=グラン・パルティータ第七楽章ロンド
TTITLE7=モーツアルト/Mozart幻想曲ヘ短調
TTITLE8=Mozartアンダンテ ヘ長調
TTITLE9=モーツアルト/Mozart幻想曲 ヘ短調
EXTD=
EXTT0=
EXTT1=
EXTT2=
EXTT3=
EXTT4=
EXTT5=
EXTT6=
EXTT7=
EXTT8=
EXTT9=
PLAYORDER=
